<svg xmlns="http://www.w3.org/2000/svg" viewBox="0 0 520 120" role="img" aria-labelledby="title desc">
  <title id="title">Car Dashboard Symbols and Meanings</title>
  <desc id="desc">Brand logo with dashboard dial and warning light symbol.</desc>
  <rect width="520" height="120" rx="18" fill="#17191f"/>
  <g transform="translate(24 20)">
    <rect width="80" height="80" rx="16" fill="#fffdf7"/>
    <path d="M18 55a24 24 0 1 1 44 0" fill="none" stroke="#263238" stroke-width="5" stroke-linecap="round"/>
    <path d="M40 25v8M27 31l6 6M53 31l-6 6" stroke="#263238" stroke-width="4" stroke-linecap="round"/>
    <path d="M22 55h36" stroke="#263238" stroke-width="5" stroke-linecap="round"/>
    <path d="M25 54h6v-6h7l4-5h13l4 5h6v15h-6l-5 5H36l-5-5h-6z" fill="none" stroke="#d99000" stroke-width="4" stroke-linecap="round" stroke-linejoin="round"/>
    <path d="M44 43v-5h10" fill="none" stroke="#d99000" stroke-width="4" stroke-linecap="round" stroke-linejoin="round"/>
  </g>
  <g fill="#fffdf7" font-family="ui-sans-serif, system-ui, -apple-system, BlinkMacSystemFont, Segoe UI, sans-serif">
    <text x="124" y="51" font-size="28" font-weight="950" letter-spacing=".5">Dashboard Symbols</text>
    <text x="124" y="82" font-size="18" font-weight="800" fill="#f2a900">Warning Light Finder</text>
  </g>
  <path d="M436 45h40M436 61h28M436 77h52" stroke="#f2a900" stroke-width="5" stroke-linecap="round"/>
</svg>
