<svg xmlns="http://www.w3.org/2000/svg" viewBox="0 0 64 64" role="img" aria-labelledby="title">
  <title id="title">Check Engine Light</title>
  <g fill="none" stroke="currentColor" stroke-width="4" stroke-linecap="round" stroke-linejoin="round">
    <path d="M8 42V30"/>
    <path d="M8 35h9"/>
    <path d="M17 35V25c0-4 3-6 7-6h10c3 0 6-2 6-6V11h22"/>
    <path d="M46 11v6c0 3 2 6 6 6h6c4 0 7 3 7 7v10h-6c-3 0-5 2-5 5v9H42L32 54H19L11 47h6V35"/>
    <path d="M55 42h9v14H55"/>
    <path d="M26 19v-5h13"/>
    <path d="M23 34h18"/>
  </g>
</svg>
